# xmcd
#
# Track frame offsets: 
#        150
#        14919
#        29149
#        47861
#        59373
#        77697
#        93722
#        108372
#        125912
#        162702
#        173001
#        187097
#        209388
#        229448
#        246927
#        270890
#        293085
#        307342
#
# Disc length: 4368 seconds
#
# Revision: 2
# Processed by: cddbd v1.5.2PL0 Copyright (c) Steve Scherf et al.
# Submitted via: ExactAudioCopy v1.0b4
#
DISCID=1c110e12
DTITLE=Climax Blues Band - Couldn't Get It Right ... Plus
DYEAR=1988
DGENRE=Blues Rock
TTITLE0=Couldn't Get It Right
TTITLE1=Berlin Blues
TTITLE2=Chasing Change
TTITLE3=Losin' The Humbles
TTITLE4=Shopping Bag People
TTITLE5=Sense Of Direction
TTITLE6=Before You Reach The Grave
TTITLE7=Reaching Out
TTITLE8=Right Now
TTITLE9=Cobra
TTITLE10=Rollin' Home
TTITLE11=Sav'ry Gravy
TTITLE12=Sky High
TTITLE13=Loosen Up
TTITLE14=Running Out Of Time
TTITLE15=Mr Goodtime
TTITLE16=I Am Constant
TTITLE17=Mighty Fire
EXTD=
EXTT0=
EXTT1=
EXTT2=
EXTT3=
EXTT4=
EXTT5=
EXTT6=
EXTT7=
EXTT8=
EXTT9=
EXTT10=
EXTT11=
EXTT12=
EXTT13=
EXTT14=
EXTT15=
EXTT16=
EXTT17=
PLAYORDER=
